<svg id="9c7ec991-f26e-42b4-9bab-0cda082b9071" data-name="Layer 1" xmlns="http://www.w3.org/2000/svg" viewBox="0 0 676.02 299">
  <title>logo</title>
  <g>
    <path d="M527.58,498.94c-11-8.55-12.92-9.07-24.72-10,0.35-.41.62-0.76,0.93-1.07,5.75-5.86,11.53-11.69,17.24-17.58q6-6.21,11.92-12.55c4-4.29,7.93-8.61,11.75-13,4.21-4.88,8.24-9.9,12.37-14.85a329.12,329.12,0,0,0,24-33c4.27-6.64,8.3-13.44,12.32-20.24,2.76-4.67,5.29-9.47,8-14.39a142.07,142.07,0,0,1-22.27-5.62c2.47-.8,4.63-1.46,6.76-2.21,2.72-1,5.47-1.87,8.08-3.07a6.61,6.61,0,0,1,4.06-.21c2.4,0.36,4.78.8,7.17,1.22a1.63,1.63,0,0,0,1.91-1.17c4-8.36,8.08-16.67,12-25.06,3.23-6.92,6.37-13.88,9.33-20.92,2.47-5.88,4.61-11.91,6.91-17.87a2.17,2.17,0,0,1,.51-0.78c-4.68,23-12.52,45-21.7,66.67l8.11,0.4c1.88,0.1,3.76.17,5.63,0.35a1.9,1.9,0,0,1,1.12.83c2.11,3.06,4.18,6.15,6.3,9.29a0.85,0.85,0,0,1-.45.25c-5.68-.08-11.36-0.14-17-0.32-2.28-.07-4.56-0.37-6.83-0.62a1.78,1.78,0,0,0-2,1.27c-4.18,8.67-8.25,17.41-12.68,25.95s-9,16.85-13.84,25.12c-5.92,10.23-11.93,20.41-18.2,30.42-5.62,9-11.56,17.73-17.54,26.47-5.08,7.42-10.39,14.67-15.65,22C530,496.16,528.76,497.52,527.58,498.94Z" transform="translate(-28.88 -200.59)" style="fill: #413715"/>
    <g>
      <path d="M414.61,306c3.6,4.2,7.24,8.11,10.48,12.32a104,104,0,0,1,7.56,11.33c3.89,6.71,7.52,13.56,11.21,20.38,1.61,3,3.43,5.58,7.25,5.9v1.46h-30.8L420.2,356c2.27-.44,4.38-1.19,4.87-3.66a9.44,9.44,0,0,0-.32-3.8c-1.28-5.51-4-10.41-7-15.12-2.84-4.49-6-8.76-9.21-13-1.42-1.91-3.15-3.58-4.81-5.43-1.84,1.57-3.33,2.78-4.76,4.05q-2.69,2.4-5.3,4.89a1.59,1.59,0,0,0-.38,1.06c0,7-.11,14,0,21a18.48,18.48,0,0,0,1.29,5.85c1,2.78,3.29,4,6.21,4l0.89,0,0.08,1.44H369.71l-0.12-1.23a1.18,1.18,0,0,1,.34-0.22,8,8,0,0,0,7.54-6.84,28.18,28.18,0,0,0,.64-5.71c0-22.88.08-45.76,0-68.63a22,22,0,0,0-1.66-7c-0.78-2.19-2.62-3.31-5-3.65-0.77-.11-2.25.14-1.71-1.81l23.53-3.83v58.26a18.12,18.12,0,0,0,1.81-1.34c5.87-5.74,11.75-11.46,17.56-17.27a22.91,22.91,0,0,0,3.64-4.63c1.87-3.23.81-5.18-2.94-5.77v-1.63h29.26v1.61c-7.19,1.13-12.88,5.18-18.24,9.81l-9.44,8.19A1.71,1.71,0,0,0,414.61,306Z" transform="translate(-28.88 -200.59)" style="fill: #69903d"/>
      <path d="M232.53,357.4H200.76l-0.09-1.31c5.24-1,7.89-3.93,8.19-9.2,0.22-3.77.31-7.55,0.32-11.32,0-11.6.07-23.19,0-34.79a14.21,14.21,0,0,0-2.15-8.12,7.14,7.14,0,0,0-4.56-2.94,5.08,5.08,0,0,1-1.46-1,4.84,4.84,0,0,1,1.52-.85q5.56-.71,11.13-1.26c2.27-.22,4.55-0.33,7-0.5,2.55,4.42,3.37,9.44,3.6,14.84,5.5-5.45,10.87-10.39,17.57-13.59a26.08,26.08,0,0,1,17.87-2c6.08,1.48,9.5,5.75,10.83,11.58a53.59,53.59,0,0,1,1.28,11.1c0.16,12,0,23.93.13,35.89a22.64,22.64,0,0,0,1.62,7.81c1.09,2.75,3.64,4,6.63,4.19a0.18,0.18,0,0,1,.08.08c0.06,0.4.11,0.81,0.18,1.32H248.2V356a1.34,1.34,0,0,1,.34-0.13A8,8,0,0,0,256,349.5a28.17,28.17,0,0,0,.65-5.55c0.16-9.78.36-19.57,0.28-29.35a55.64,55.64,0,0,0-1.28-11.26c-1.06-4.89-4-8-9.75-7.93a18.12,18.12,0,0,0-10.62,3.81c-4.52,3.2-8.08,7.2-9.66,12.6a28,28,0,0,0-1.17,7.32c-0.14,8.59-.12,17.18,0,25.77a13.6,13.6,0,0,0,2.18,7.79,6.81,6.81,0,0,0,4.94,3.17C232.62,356,232.67,356.52,232.53,357.4Z" transform="translate(-28.88 -200.59)" style="fill: #69903d"/>
      <path d="M324.44,284.4a47.4,47.4,0,0,1,19.78,4.46,31.86,31.86,0,0,1,14,12.77A37,37,0,0,1,363,316.88,39,39,0,0,1,358.51,340a34.76,34.76,0,0,1-12.13,12.73,39.34,39.34,0,0,1-14.82,5.59,49.58,49.58,0,0,1-13.09.47,41.6,41.6,0,0,1-15.28-4.23c-9.84-5.11-15.95-13.15-18-24.1a36.11,36.11,0,0,1-.9-7.71c0.16-5.44.82-10.81,3.05-15.9a34.89,34.89,0,0,1,8-11.57,37.2,37.2,0,0,1,19.12-9.61C317.71,285.08,321.09,284.82,324.44,284.4Zm22.09,39.2a45.37,45.37,0,0,0-3.26-17.78,23.54,23.54,0,0,0-7.63-10.07c-4.89-3.65-10.39-4.36-16.26-3.47a18.87,18.87,0,0,0-13.5,8.48C302.37,306,301.2,312,301,318.13a53.34,53.34,0,0,0,.92,10.54c1.19,7,3.74,13.32,9.15,18.23a18.77,18.77,0,0,0,15.42,4.78,19.67,19.67,0,0,0,14.69-9.56A35.43,35.43,0,0,0,346.53,323.6Z" transform="translate(-28.88 -200.59)" style="fill: #69903d"/>
      <path d="M156,284.4c7.64,0.19,14.89,1.67,21.56,5.39a32,32,0,0,1,14.83,17A43.14,43.14,0,0,1,191,338.46a34.72,34.72,0,0,1-18.11,16.94,48.33,48.33,0,0,1-13.76,3.38,44.59,44.59,0,0,1-22.37-3.28,33.33,33.33,0,0,1-15.44-13.14,31.61,31.61,0,0,1-4.73-12.82,49.77,49.77,0,0,1-.62-8.88c0.34-8,2.65-15.42,7.77-21.81C129.47,291.64,137,287.5,146,285.7,149.25,285,152.64,284.82,156,284.4Zm-23.37,33a51.2,51.2,0,0,0,1.88,15.39c1.66,5.65,4.06,10.83,8.81,14.62a19.34,19.34,0,0,0,16.82,3.86c6.75-1.44,11.26-5.89,14.19-11.82a36.26,36.26,0,0,0,3.62-20,51.7,51.7,0,0,0-2-10.64c-1.56-4.88-4-9.29-8-12.56-5-4.1-10.93-5-17.19-3.94a19.2,19.2,0,0,0-14.73,10.92A33.67,33.67,0,0,0,132.62,317.42Z" transform="translate(-28.88 -200.59)" style="fill: #69903d"/>
      <path d="M470.08,325a32.75,32.75,0,0,0,3.83,11,31.82,31.82,0,0,0,9.46,10.43A30.9,30.9,0,0,0,496,351.52c5.53,0.93,10.5-.62,15.28-3A25.68,25.68,0,0,0,523.49,336c0.31-.66.65-1.29,1-1.93a1.49,1.49,0,0,1,.32-0.28c1.07,0.26,1.54.64,1.1,2-2.44,7.49-4.77,15-7.14,22.52-2.75-1.34-5.65-.93-8.52-0.62s-5.76.76-8.65,1c-2.34.21-4.7,0.24-7.05,0.34-6.15.26-11.9-1.4-17.48-3.73a41.56,41.56,0,0,1-14.48-9.77,32.28,32.28,0,0,1-8.87-18.72,37.91,37.91,0,0,1,4.18-23.2,35.88,35.88,0,0,1,18-16,38.61,38.61,0,0,1,18.63-2.82,34.31,34.31,0,0,1,19.18,7.53,32.67,32.67,0,0,1,8.8,10.79c0.89,1.79,1.45,3.74,2.2,5.6,0.32,0.79.1,1.1-.71,1.32q-18.45,5.14-36.88,10.33C481.54,321.92,475.93,323.43,470.08,325Zm37.65-17.38c-0.28-.75-0.54-1.52-0.86-2.28A24.62,24.62,0,0,0,499.24,295a15.38,15.38,0,0,0-11-3,17.77,17.77,0,0,0-10.3,4.13,24.12,24.12,0,0,0-7.63,12.74,25.55,25.55,0,0,0-1,9.78Z" transform="translate(-28.88 -200.59)" style="fill: #69903d"/>
      <path d="M108.71,322.87c0.85,0.21,1.12.8,0.69,2-3.37,9.68-6.67,19.38-10,29.07-0.64,1.85-1.35,3.67-2.07,5.6-2.09-2-4.82-2.08-7.49-2.09-18.76,0-37.53,0-56.29,0h-2l-0.12-1.41c2.77-.68,5.33-1.55,6.92-4.07a14.08,14.08,0,0,0,2.26-7.62c0.11-21.75.27-43.5,0.26-65.24,0-3.48-.18-7-1.84-10.31a8.52,8.52,0,0,0-6-4.68c-0.92-.21-2-0.3-1.45-1.8H66.12v1.33a8.28,8.28,0,0,1-1.38.45c-4.74.74-6.78,4-7.37,8a42.42,42.42,0,0,0-.34,6.1q0,31.86,0,63.72c0,6.07,3,8.07,8.41,8.51a39.4,39.4,0,0,0,22.45-5.07,40.38,40.38,0,0,0,12.88-11C103.54,330.78,106,326.88,108.71,322.87Z" transform="translate(-28.88 -200.59)" style="fill: #69903d"/>
    </g>
    <path d="M650,246.92c3.53-5.74,10.61-6.58,15.08-2.22a12.41,12.41,0,0,1,3.47,7.76c0.86,6.71-.72,13.07-2.55,19.41a158.51,158.51,0,0,1-9.19,23.6c-3.8,8-7.7,16-11.55,24.06-0.17.35-.31,0.72-0.46,1.08l0.37,0.22c1.4-2,2.83-4,4.2-6,2-2.91,3.57-6.14,6.61-8.13a8.81,8.81,0,0,1,3.4-1.32c1.43-.22,2.27.87,2.76,2.09,0.38,0.95.5,2,.89,2.94,0.83,2,2.29,2.29,3.62.69,3.33-4,6.62-8.12,9.73-12.33s6-8.5,9.92-12a13.43,13.43,0,0,1,9-3.9,9.15,9.15,0,0,1,9.25,8.28c1,7.91-.68,15.35-3.76,22.55A92.68,92.68,0,0,1,687.54,335a131.75,131.75,0,0,1-11.38,12.34,75.38,75.38,0,0,1-17.38,12.71,10.46,10.46,0,0,1-2.79,1c1.3-1.21,2.63-2.38,3.89-3.63,3.95-3.91,8-7.72,11.75-11.82a152.46,152.46,0,0,0,10-12.16c6-8.12,10.86-16.87,13.08-26.8a57.88,57.88,0,0,0,1-11.17c0.07-2.8-1.54-5.59-3.65-6.13a6,6,0,0,0-5,.75c-4.24,2.74-6.74,7-9.42,11-3.21,4.87-6.3,9.82-9.63,14.6a15.55,15.55,0,0,1-4.18,3.88c-2.06,1.36-3.85.46-4.39-1.92A7,7,0,0,0,659,316c-0.51-1-1-2.41-1.8-2.65a3.76,3.76,0,0,0-3.18,1,48.79,48.79,0,0,0-3.86,5.41c-1.62,2.33-3.12,4.76-4.94,6.92a5.24,5.24,0,0,1-3.16,1.3c-1.62.21-2.55-.89-2.66-2.54-0.22-3.28,1-6.23,2.27-9.1,5-11.76,10.35-23.4,15.27-35.2a55,55,0,0,0,4.31-16.24c0.32-3.57.79-7.14,0.87-10.72a17.07,17.07,0,0,0-1-5.62c-1.2-3.65-4.49-4.65-8.58-2.83C651.86,246.06,651.13,246.4,650,246.92Z" transform="translate(-28.88 -200.59)" style="fill: #69903d"/>
    <path d="M577.6,283c-2.3-1.31-3.29-3.54-3.9-5.88a23.46,23.46,0,0,1-.35-10.07c0.44-2.55,4.13-4.76,6.77-4.12,3.53,0.85,6.09,3.07,8.42,5.72,4.82,5.48,7.69,12.11,11.12,18.42,1.2,2.22,2.7,4.28,4,6.45,0.71,1.19,1.36.59,1.91,0a16.9,16.9,0,0,0,1-1.71c0.92-1.33,2.14-1.54,3.27-.34a32.36,32.36,0,0,1,2.56,3.49,30.25,30.25,0,0,0,2.61,3.31c1.33-5.5.28-10.67-1.12-15.84-1.8-6.62-4.2-13-6.65-19.42-1.59-4.16-2.74-8.6-1-13a14.44,14.44,0,0,1,3.19-4.85,4.48,4.48,0,0,1,3.45-.77c2.47,0.41,4.87,1.22,7.72,2a60.22,60.22,0,0,0-.71-7.2c-1.36-6.18-3.15-12.27-4.38-18.48-1-5.28-.8-10.58,2.39-15.27,1.8-2.64,4.25-4.52,7.51-4.75a10.84,10.84,0,0,1,8.28,3.26,22.2,22.2,0,0,1,6.66,13.84c0.66,5.06.64,10.07-1.27,14.91a7.07,7.07,0,0,1-.31.7,0.5,0.5,0,0,1-.19.15c-0.67-2.89-1.24-5.82-2.06-8.69A64.36,64.36,0,0,0,633.3,215a14.13,14.13,0,0,0-8.09-7.3c-2.63-1-4.77,0-6,2.55a17.2,17.2,0,0,0-1,13.24c1.26,3.81,2.76,7.55,3.85,11.4,0.87,3.06,1.22,6.26,1.9,9.38,0.46,2.1-.07,4.05-0.43,6l-8.66-1.94c-2.62-.58-4.6,1.32-4.86,4.44-0.46,5.51.72,10.78,2.22,16,1.75,6.09,3.66,12.12,5.4,18.21a38.38,38.38,0,0,1,.86,16c-2.42.11-3.6-1.6-5-3.06a52.89,52.89,0,0,0-4.21-4c-1-.87-2.06-0.45-2.88.48-1.72,1.93-2.41,2.54-4.87-.41-3-3.54-4.67-7.77-6.37-12s-3.59-8.54-7-11.77c-2-1.87-4.1-3.66-6.9-4.28-3.28-.73-5,0.86-5.46,4.24C575.31,276,576.35,279.48,577.6,283Z" transform="translate(-28.88 -200.59)" style="fill: #69903d"/>
    <path d="M658.7,398.8a7.71,7.71,0,0,0,4,3.65,20.16,20.16,0,0,1,2.18,1.18c3.64,2.23,3.56,4.68.75,7.78a19.09,19.09,0,0,1-8.75,5.16c-9.74,3-19.52,5.85-29.36,8.46-3.71,1-7.64,1.17-11.48,1.72l-0.19-.71c1.52-.61,3-1.32,4.58-1.82,6-1.93,12.11-3.7,18.11-5.72,5.09-1.71,10.12-3.66,14.3-7.19a65.2,65.2,0,0,0,4.88-4.66,1.62,1.62,0,0,0-.22-1.5,45.42,45.42,0,0,0-3.78-3.82c-2.42-2.14-1.71-5,.73-6.24,2.7-1.41,5.45-2.72,8.17-4.09a30.64,30.64,0,0,0,11-8.7c1.49-2,2.7-4.15,4-6.26a6.26,6.26,0,0,0,.69-1.71c0.55-2.17-.15-2.93-2.31-3.3-6.59-1.13-11.91,1.71-17,5.31-5.26,3.75-10.34,7.76-15.65,11.43a18.82,18.82,0,0,1-9.42,3.2,2.36,2.36,0,0,1-2.37-2.92,15.82,15.82,0,0,1,3.65-6.9c0.94-1.09,1.91-2.15,2.86-3.22l0.58,0.38c-0.61,1-1.2,2.09-1.84,3.1s-1.33,1.84-1.86,2.84-0.22,1.93,1,1.65a43.43,43.43,0,0,0,6.91-2c5.22-2.14,9.5-5.81,14.09-9,4.34-3,8.67-6,13.88-7.35a20.91,20.91,0,0,1,10.13-.34,31.66,31.66,0,0,1,3.31.73,4.43,4.43,0,0,1,2,1.25,7.79,7.79,0,0,1-.15,9.4c-3.72,4.74-8.5,8.2-13.56,11.34q-6.51,4-13,8.07A6.45,6.45,0,0,0,658.7,398.8Z" transform="translate(-28.88 -200.59)" style="fill: #69903d"/>
    <path d="M570.83,445.88a45.42,45.42,0,0,1,5-2.92,5.65,5.65,0,0,1,3,0c5.93,1.09,11.83,2.39,17.79,3.36a91.65,91.65,0,0,0,10.87,1,30.19,30.19,0,0,0,5.39-.64,1.94,1.94,0,0,0,.64-0.49c-1.18-1.87-3.24-2-4.88-2.94-1.34-.73-2.69-1.46-4-2.31s-0.88-1.61.06-2.43a12.21,12.21,0,0,1,6.95-3.12c3.07-.31,6.17-0.34,9.25-0.49l0.11,0.46-3.17.93c-1.86.55-3.76,1-5.57,1.72a2.24,2.24,0,0,0-1.3,1.62,2.93,2.93,0,0,0,1.32,2c2.33,1.18,4.79,2.12,7.18,3.19a11.32,11.32,0,0,1,2.28,1.26c1.91,1.46,1.81,2.42-.15,3.8-2.8,2-5.67,3.85-9.15,4.22a33.55,33.55,0,0,1-6.9,0c-9.46-1-18.22-4.77-27.4-6.84C575.86,446.72,573.46,446.37,570.83,445.88Z" transform="translate(-28.88 -200.59)" style="fill: #69903d"/>
    <path d="M578.41,338.36c-1.91-2.61-3.71-5.3-5.76-7.8a19.15,19.15,0,0,0-11.78-6.94,4.9,4.9,0,0,0-1.79-.14c-2.93.62-3.87,2.37-2.93,5.31a25.82,25.82,0,0,0,5.14,8.6c3.13,3.75,6.13,7.57,7.36,12.43,0.24,0.94.74,2.14,0.38,2.83a3.44,3.44,0,0,1-2.55,1.57,21.69,21.69,0,0,1-5-.91c-1.33-.32-2.62-0.79-4.1-1.25a5.22,5.22,0,0,0,.71,4.27,46.23,46.23,0,0,0,4.14,6.33c3.37,4.16,6.65,8.34,7.94,13.68a38.36,38.36,0,0,1,.9,6.1c-0.83-5.82-3.9-10.44-7.44-14.89-3.18-4-6.72-7.77-8.79-12.55a16.57,16.57,0,0,1-1.12-3.35c-0.43-2.2,1.83-3.66,4.39-2.84,1.56,0.5,3.06,1.25,4.64,1.68a17.4,17.4,0,0,0,3.32.24c-0.84-3.8-3-6.56-4.74-9.46-2.22-3.6-4.76-7-6.79-10.72a12.69,12.69,0,0,1-1.13-9,3.59,3.59,0,0,1,3.49-2.62c5.41-.23,9.85,2,13.79,5.47a26,26,0,0,1,7.47,11,21.12,21.12,0,0,1,.61,2.92Z" transform="translate(-28.88 -200.59)" style="fill: #69903d"/>
    <path d="M555.75,390.35a20.23,20.23,0,0,0-1.36,3.47,25.82,25.82,0,0,0,1,15c1.33,3.33,2.55,6.88,2,10.57a18.74,18.74,0,0,1-2,6.73c-0.8,1.38-2.8,2.07-4.26,3.07l-0.39-.34c0.55-1.74,1-3.51,1.67-5.21,1.54-4.08,1.29-8.21.44-12.36-0.94-4.56-2.22-9.06-2.05-13.78,0.15-4.35,2-8.18,3.9-12a1.82,1.82,0,0,1,1.66-.09c1.55,1,1.94,2.72,2.34,4.39a36.34,36.34,0,0,0,1.23,4.77,5,5,0,0,0,2,2.65c1.33,0.61,2.23-.74,3.09-1.63a7.21,7.21,0,0,0,.69-1l0.42,0.07a7.7,7.7,0,0,1-.2,2c-0.61,1.63-4,3.3-5.66,2.82-1.45-.41-2.07-1.63-2.51-3-0.34-1-.66-2.06-0.93-3.1s-0.45-2-.68-3Z" transform="translate(-28.88 -200.59)" style="fill: #69903d"/>
    <path d="M587.89,348.3c0.1-3.41.58-6.68,0.2-9.84a44.62,44.62,0,0,0-2.57-10c-2.53-6.82-7.08-12.45-11.41-18.18-3.21-4.25-5.54-8.86-5.52-14.35,0-3.13,1.42-5.52,3.63-6.1a10.08,10.08,0,0,1,5.89.43c0.51,0.18,1,.43,1.5.64l0,0.42c-0.95,0-1.89,0-2.84,0a3.42,3.42,0,0,0-3.52,1.73c-2.16,3.85-1.33,7.66.16,11.38,2.1,5.22,5.62,9.6,8.93,14.09,3,4.13,5.9,8.37,7.31,13.38a21,21,0,0,1-.8,14C588.53,346.69,588.24,347.44,587.89,348.3Z" transform="translate(-28.88 -200.59)" style="fill: #69903d"/>
    <path d="M502,490.74c9-.21,16.64,3.18,23.7,8.29C521.62,501.5,503.75,495.25,502,490.74Z" transform="translate(-28.88 -200.59)" style="fill: #413715"/>
    <g>
      <path d="M280.39,372.34h237.4a13.62,13.62,0,0,1,13.45,11.77,34.84,34.84,0,0,1,.31,4c0,14.23,0,28.47,0,42.7a13.71,13.71,0,0,1-4.09,9.94,13.22,13.22,0,0,1-9.63,4H42.69A13.69,13.69,0,0,1,29.31,434.5a12.9,12.9,0,0,1-.41-3.55c0-14.87,0-29.73,0-44.6,0-6.59,4.82-12.86,11.33-13.71a20.67,20.67,0,0,1,2.62-.29H280.39ZM74.91,398.62c1.16-.67,2.43-1.42,3.72-2.13,2.07-1.15,4-2.49,4.94-4.77,1.24-3,.53-6.06-2.94-7a23.24,23.24,0,0,0-5.78-.95c-7.9-.1-15.8,0-23.71,0a7,7,0,0,0-1,.15l-0.13.37c3.09,0.49,4.16,2.66,4.18,5.24,0.1,10.48.06,21,0,31.45a4.89,4.89,0,0,1-2,4.17,15.5,15.5,0,0,1-2.29,1.07,3.49,3.49,0,0,0,.71.23c7.25-.09,14.5-0.24,21.75-0.27A29,29,0,0,0,81,424.61c6.22-2,8.51-8.72,7.16-14.1a12.65,12.65,0,0,0-5.92-7.82C79.85,401.24,77.38,400,74.91,398.62Zm64.22,27.5a28,28,0,0,1,4.7,0,22.81,22.81,0,0,0,9-.38c5.26-1.12,9.1-4,11-9.2a18.88,18.88,0,0,0,.68-8.68,13.72,13.72,0,0,0-3.7-8.19c-3.65-3.82-8.42-5-13.41-5.19-5.74-.22-11.49-0.05-17.24,0-0.43,0-.86.08-1.28,0.12l-0.18.39c2.29,0,3.37,1.3,3.82,3.16a16.08,16.08,0,0,1,.4,3.72q0,15.34,0,30.68a16.4,16.4,0,0,1-.36,3.72c-0.38,1.61-1.1,3.07-3.11,3.17a3.66,3.66,0,0,0-.74.19l0.36,0.22H143a4,4,0,0,1-3.37-3.89C139.36,432.77,139.3,429.57,139.14,426.12Zm330.78-42.31c3.08,1.19,3.73,2.88,3.74,5.71,0,10.28,0,20.56,0,30.84a7.51,7.51,0,0,1-1,3.67c-0.56.94-1.75,1.5-2.73,2.28h14c-3.34-1.15-3.65-3.8-3.59-6.71,0.06-3.11.13-6.23,0-9.33a10.76,10.76,0,0,1,4.84-10c1.74-1.2,3.69-2.15,5.76-1.85,3.29,0.47,4.07,2.32,4.22,5.74,0.25,5.58.1,11.17,0,16.76a5.27,5.27,0,0,1-1.82,4.3,11.86,11.86,0,0,1-2.3,1h15c-3.45-1.32-4.16-2.44-4.2-5.77-0.08-6.52-.13-13-0.34-19.55-0.1-2.93-1.72-6.28-5.3-6.88a13.21,13.21,0,0,0-9.31,2c-2.28,1.37-4.32,3.13-6.59,4.8V382.14ZM351.78,426.26h14.41c-3.45-1.32-4.16-2.44-4.2-5.77-0.08-6.52-.1-13-0.35-19.55-0.12-3-1.45-6.2-5.29-6.86a13.24,13.24,0,0,0-9.31,2c-2.28,1.36-4.32,3.13-6.59,4.8V382.14l-10.4,1.7c3.13,1.15,3.76,2.83,3.77,5.53,0,10.49,0,21,0,31.47a10.09,10.09,0,0,1-.2,1.53c-0.32,2-1.74,3.09-3.5,3.94h13.95c-3.34-1.07-3.62-3.7-3.59-6.56,0-3.48.11-7,0-10.44-0.17-5,3.6-9.28,8-10.6,3.43-1,5.42.36,6.13,2.31a12.19,12.19,0,0,1,.7,3.94c0.08,5.06.05,10.12,0,15.18C355.32,422.82,354.8,425.24,351.78,426.26Zm-224.92.17L127,426a5.53,5.53,0,0,1-4.35-4.38,16.72,16.72,0,0,1-.42-3.71c0-5.27.18-10.55-.08-15.81-0.2-4-1.57-6.61-5.53-7.61a26.79,26.79,0,0,0-10.66-.12c-3.32.49-6.27,3-9.88,1.69l-0.86,9.26c0.37-.44.47-0.53,0.55-0.65,3.27-5.28,8.12-7.5,14.2-7.3,2.66,0.09,4.54,1.35,5.08,3.44a42.41,42.41,0,0,1,.67,4.26c-3.29.84-6.34,1.55-9.35,2.41-4.21,1.2-8.34,2.66-11.3,6.13-3.33,3.91-3.32,9.53,1.75,12.12a14.61,14.61,0,0,0,10.17.91c3.57-.85,6.76-2.38,8.76-5.73,0.5,1.42.87,2.76,1.44,4a2.53,2.53,0,0,0,1.4,1.47C121.34,426.5,124.1,426.43,126.86,426.43ZM327,414l-0.29-.12c-0.16.24-.32,0.48-0.49,0.72-1.31,1.85-2.35,4-4,5.5-6.89,6.21-16.87,4.55-22.74-1.06s-7.82-13-6.34-21a14.33,14.33,0,0,1,6-9.54c4.37-3,9.18-2.79,14-1.34,3.93,1.17,6.62,3.86,8.92,7.22l-2.81-11.77a4.44,4.44,0,0,1-4.25,1.07,36.92,36.92,0,0,0-16,.38c-5.71,1.57-10,4.81-12.39,10.5a24.08,24.08,0,0,0-1.49,10.24A21.76,21.76,0,0,0,290.86,419c5,5.62,11.57,7.86,18.9,8,3.82,0.08,7.66-.14,11.48-0.33a2,2,0,0,0,1.43-1.08c1.15-2.75,2.19-5.55,3.24-8.35C326.31,416.19,326.62,415.07,327,414Zm65.08-18.59c3.1,2,3.4,2.15,3.44,3.81,0.1,4.54.18,9.08,0,13.61-0.19,4.94-4.2,8.66-8.79,9.75-2,.48-4.77-0.05-5.41-3.08a18.91,18.91,0,0,1-.6-3.65c-0.06-6.53,0-13.07,0-19.6,0-.56,0-1.13,0-1.71l-10.19.88-0.15.46a3.78,3.78,0,0,1,3.63,3.37,20.92,20.92,0,0,1,.35,3.88c0,5.48-.21,11,0.08,16.44,0.3,5.67,3.51,7.74,8.28,7.46a15.06,15.06,0,0,0,8-3.12c1.72-1.26,3.39-2.61,5-3.86,0.39,1.78.8,3.48,1.12,5.2a1.32,1.32,0,0,0,1.6,1.23c2.21-.07,4.43,0,6.64,0,0.42,0,.83-0.08,1.25-0.12l0.16-.39c-2.67.09-3.44-1.74-3.87-3.7a21.2,21.2,0,0,1-.35-4.36c0-7.22,0-14.44,0-21.66v-1.67Zm-157.15,9.21-0.48-9.38a7.34,7.34,0,0,1-1.88.18c-2.54-.43-5-1.14-7.6-1.39-4.79-.48-9.41,0-12.92,3.85-2.45,2.67-2.08,7.5.67,10,2.12,1.94,4.85,2.85,7.57,3.71s5.19,1.66,7.75,2.6c1.78,0.65,3,1.88,3,3.93s-1.3,3.47-3.06,4.53A12.92,12.92,0,0,1,212,419a52.72,52.72,0,0,1-2.75-5.46l0.53,11.6a43.17,43.17,0,0,1,4.37.51c4.56,1,9.1,2.11,13.8.79,5.45-1.53,10.06-4.79,9.28-11.47a8.35,8.35,0,0,0-2.28-4.33c-2.4-2.55-5.87-3.07-9-4.16-2.47-.85-5-1.68-7.33-2.76-2.73-1.24-1.86-4.85.21-5.82a10.2,10.2,0,0,1,5.8-.92C229.46,397.61,232.95,399.89,234.91,404.59Zm231.68,13.13-0.29-.19a7.42,7.42,0,0,0-.54.67,12.4,12.4,0,0,1-19.34,2c-4-4-4.81-9-3.71-14.26,1.16-5.58,5.4-9.79,11.68-8.94a11,11,0,0,1,7.23,4.08c0.64,0.77,1.15,1.65,1.71,2.48l0.31-.11L462,394.32c-2,0-3.83,0-5.67,0-3.21,0-6.58-.72-9.6,0-10.13,2.44-13.13,12.59-10.39,20.9,1.74,5.26,5.48,8.59,10.53,10.4A19.51,19.51,0,0,0,457,426.81a50.5,50.5,0,0,1,6.43-.37ZM250.64,394.87V383.31l-5.74,2.53c0.87,4.88.24,9.19-4.8,11.84H244c0,0.81,0,1.44,0,2.07,0.1,7.09,0,14.19.4,21.26,0.21,3.6,1.8,5,5,5.77s6.16-.24,9.2-0.72a1.5,1.5,0,0,0,1-.64c0.71-1.6,1.32-3.25,1.89-4.7a20.28,20.28,0,0,1-4.19,2.25c-3.92,1.06-6.72,0-6.71-4.78,0-6.27,0-12.53,0-18.8v-1.84l7.62,0.34,1.17-3h-8.79Zm-78.37-9c0.68,5.07.11,9.33-5,11.67a9.08,9.08,0,0,0,2.4.1c1.56-.2,2,0.45,1.94,1.95-0.07,6.79,0,13.59,0,20.38a6.72,6.72,0,0,0,4.54,6.69c3.49,1,6.88,0,10.27-.67a1.07,1.07,0,0,0,.66-0.56c0.68-1.59,1.31-3.21,2-4.82a4.15,4.15,0,0,0-1.29.91c-3.65,3.28-8.69,2.13-9.72-2.21a5.5,5.5,0,0,1-.08-1.25q0-9.48,0-19c0-.45.06-0.91,0.08-1.2h7.72l1.16-3.08h-9V383.33Zm252,40.43c-2.33-.85-3.69-2.37-3.68-4.77,0-5,0-10,.37-14.95a7.81,7.81,0,0,1,4.81-6.94c2.23-.92,4.34-0.25,6.45.79l1.43-6.27c-6.37-1-10.12,2.42-13.08,7l-1.46-6.67-8.76.85c2.94,1.29,3.59,3.56,3.57,6.33,0,6.06,0,12.12,0,18.18,0,2.85-.43,5.4-3.73,6.42h14.09ZM191.3,395.36l-0.09.46c3.37,0.7,3.65,3.36,3.7,5.91q0.18,9.16,0,18.33a10.27,10.27,0,0,1-1.27,4.35c-0.42.8-1.57,1.21-2.48,1.85h14.18l0.22-.42c-2.3.16-3.37-1.11-3.82-3a14,14,0,0,1-.43-3.23c0-7.8,0-15.6,0-23.39v-1.74Zm10.94-9.89c0-2.77-1.66-4.61-4.14-4.6a4.59,4.59,0,0,0-4.41,4.69,4.93,4.93,0,0,0,4.37,4.78C200.3,390.42,202.24,388.15,202.24,385.47Z" transform="translate(-28.88 -200.59)" style="fill: #413715"/>
      <path d="M61.15,412.05c0-2.42,0-4.85,0-7.27a1.83,1.83,0,0,1,.84-1.37c2.18-.93,4.45-1.63,6.61-2.6a5,5,0,0,1,5.33.66c3,2,5.52,4.38,6.76,7.88,2.07,5.8-1.74,12.3-7.4,13.29a54.73,54.73,0,0,1-8.17.88c-2.79.06-4-1.32-4-4.2C61.12,416.9,61.15,414.48,61.15,412.05Z" transform="translate(-28.88 -200.59)" style="fill: #413715"/>
      <path d="M61.46,400.81c0-3.82,0-7.53,0-11.24a2.18,2.18,0,0,1,2.21-2.47c3.15-.14,6.39-0.55,9.43,0,4.41,0.83,4.61,4.25,1.64,7-2.13,2-5,3.33-7.61,4.68A41.28,41.28,0,0,1,61.46,400.81Z" transform="translate(-28.88 -200.59)" style="fill: #413715"/>
      <path d="M139.29,397.07c3.73-.13,7.23-0.14,10.64,1.16,4.27,1.63,6.64,4.84,7.66,9.08A14.58,14.58,0,0,1,156,418a10.12,10.12,0,0,1-8.37,5.59,28.68,28.68,0,0,1-4.61,0,4.49,4.49,0,0,1-3.72-4.53C139.25,411.76,139.29,404.5,139.29,397.07Z" transform="translate(-28.88 -200.59)" style="fill: #413715"/>
      <path d="M115.53,407.52c0.08,4.54-.14,8.62-2.5,12.29-2,3.16-7.52,4.77-10.55,2.91a4.83,4.83,0,0,1-2.27-5.44c1.11-3.82,4.16-5.67,7.47-7.09C110.11,409.13,112.71,408.46,115.53,407.52Z" transform="translate(-28.88 -200.59)" style="fill: #413715"/>
    </g>
  </g>
</svg>
