<svg id="e8bc1eba-b9d9-4ad4-9aa4-101cab2b0f91" data-name="Layer 1" xmlns="http://www.w3.org/2000/svg" viewBox="0 0 50 39.13">
  <title>bars</title>
  <g>
    <path d="M3.38,0H46.63A3.37,3.37,0,0,1,50,3.37V5a3.38,3.38,0,0,1-3.37,3.38H3.38A3.38,3.38,0,0,1,0,5V3.38A3.38,3.38,0,0,1,3.38,0Z" style="fill: #69903d"/>
    <path d="M3.38,15.38H46.63A3.37,3.37,0,0,1,50,18.75v1.63a3.38,3.38,0,0,1-3.37,3.38H3.38A3.37,3.37,0,0,1,0,20.38V18.75a3.38,3.38,0,0,1,3.38-3.37Z" style="fill: #69903d"/>
    <path d="M3.38,30.75H46.63A3.38,3.38,0,0,1,50,34.13v1.63a3.38,3.38,0,0,1-3.37,3.38H3.38A3.37,3.37,0,0,1,0,35.75V34.13a3.38,3.38,0,0,1,3.38-3.37Z" style="fill: #69903d"/>
  </g>
</svg>
